#!OML:ASF E:\Style4\Style4.ASF
:FULLY-SPECIFIED
:DEGREES
1663
root -0.24471 17.2839 -1.12619 1.00222 -2.02035 4.30804
lowerback 11.6758 2.43599 -1.35516
upperback 7.01898 3.08046 -0.436811
thorax 0.746333 1.50948 -0.0240696
lowerneck 0.552092 -5.82601 -5.24372
upperneck 6.72886 -7.95483 4.51639
head 2.48898 -3.97921 2.18417
rclavicle -2.16675e-014 1.86858e-014
rhumerus 58.6479 -15.9767 -15.3744
rradius 56.2449
rwrist -23.2529
rhand 5.78527 9.63119
rfingers 7.12502
rthumb 31.1187 -17.7476
lclavicle -2.16675e-014 1.86858e-014
lhumerus 58.1194 14.2023 14.6133
lradius 70.0826
lwrist 23.0189
lhand 7.71241 24.1192
lfingers 7.12502
lthumb 32.9535 51.1292
rfemur -24.2829 -3.40394 15.7029
rtibia 46.9347
rfoot -21.5892 -15.9173
rtoes -15.389
lfemur -21.0545 4.55552 -21.5598
ltibia 41.8247
lfoot -21.0402 7.79407
ltoes -18.1905
1664
root -0.230452 17.2891 -1.12165 1.0188 -2.3601 4.30792
lowerback 11.5768 2.45537 -1.30128
upperback 7.05263 3.11249 -0.467347
thorax 0.839115 1.52688 -0.0838307
lowerneck 0.318823 -5.90303 -5.23471
upperneck 6.898 -8.05545 4.55219
head 2.5952 -4.02513 2.18292
rclavicle 1.80894e-014 2.78299e-015
rhumerus 58.6874 -16.0158 -15.3879
rradius 56.2272
rwrist -23.2252
rhand 5.589 9.63779
rfingers 7.12502
rthumb 30.9316 -17.7767
lclavicle 1.80894e-014 2.78299e-015
lhumerus 58.1288 14.278 14.5236
lradius 69.9863
lwrist 23.0869
lhand 7.67997 24.1043
lfingers 7.12502
lthumb 32.9227 51.1208
rfemur -24.3019 -3.17828 15.6625
rtibia 46.8446
rfoot -21.6045 -15.6202
rtoes -14.2204
lfemur -20.9858 4.71962 -21.6177
ltibia 41.7627
lfoot -21.0923 7.93833
ltoes -17.8217
1665
root -0.215759 17.2932 -1.11597 0.996731 -2.73749 4.37212
lowerback 11.5376 2.46782 -1.3539
upperback 7.05305 3.12358 -0.497576
thorax 0.859673 1.53086 -0.0851239
lowerneck 0.408512 -5.94914 -5.10572
upperneck 6.81819 -8.11327 4.43285
head 2.54176 -4.05455 2.12194
rclavicle 6.81831e-014 -2.10712e-014
rhumerus 58.73 -15.987 -15.3157
rradius 56.2409
rwrist -23.3028
rhand 5.31966 9.81153
rfingers 7.12502
rthumb 30.6748 -17.6514
lclavicle 6.81831e-014 -2.10712e-014
lhumerus 58.0198 14.3019 14.4082
lradius 69.9145
lwrist 23.0091
lhand 7.69668 24.0657
lfingers 7.12502
lthumb 32.9386 51.0788
rfemur -24.2962 -2.88005 15.53
rtibia 46.7301
rfoot -21.2487 -15.8449
rtoes -16.0931
lfemur -20.8546 4.93251 -21.7412
ltibia 41.6833
lfoot -21.1921 8.02622
ltoes -17.3693
1666
root -0.200455 17.2981 -1.11209 0.984677 -3.14094 4.37423
lowerback 11.5433 2.46631 -1.38231
upperback 7.02906 3.11722 -0.487069
thorax 0.829409 1.52621 -0.0586648
lowerneck 0.48317 -5.98799 -5.18539
upperneck 6.79273 -8.16798 4.45577
head 2.52828 -4.08424 2.14426
rclavicle 4.45278e-014 -1.70955e-014
rhumerus 58.8645 -15.9098 -15.3233
rradius 56.2339
rwrist -23.3233
rhand 5.07672 9.94049
rfingers 7.12502
rthumb 30.4431 -17.5656
lclavicle 4.45278e-014 -1.70955e-014
lhumerus 57.861 14.3406 14.2762
lradius 69.8012
lwrist 23.0248
lhand 7.77192 23.9718
lfingers 7.12502
lthumb 33.0101 50.9699
rfemur -24.3011 -2.56089 15.4636
rtibia 46.5914
rfoot -21.0016 -15.9274
rtoes -17.3038
lfemur -20.7429 5.1366 -21.7937
ltibia 41.6024
lfoot -21.2834 8.24478
ltoes -17.4329
1667
root -0.184201 17.3029 -1.10942 0.966883 -3.54348 4.34533
lowerback 11.5436 2.48887 -1.32222
upperback 7.05117 3.15142 -0.50687
thorax 0.856395 1.54483 -0.115708
lowerneck 0.375878 -6.09076 -5.10579
upperneck 6.81821 -8.3041 4.46871
head 2.56025 -4.14829 2.12652
rclavicle 2.80286e-014 8.34896e-015
rhumerus 58.93 -15.9338 -15.4532
rradius 56.2284
rwrist -23.2039
rhand 4.96131 10.0254
rfingers 7.12502
rthumb 30.3331 -17.501
lclavicle 2.80286e-014 8.34896e-015
lhumerus 57.8888 14.4439 14.2007
lradius 69.6774
lwrist 23.1704
lhand 7.78987 23.7771
lfingers 7.12502
lthumb 33.0272 50.7715
rfemur -24.2842 -2.27076 15.4426
rtibia 46.4482
rfoot -20.9074 -15.8336
rtoes -17.406
lfemur -20.6245 5.355 -21.8158
ltibia 41.5149
lfoot -21.3847 8.44203
ltoes -17.5775
1668
root -0.165164 17.3087 -1.10543 0.961467 -3.97876 4.34626
lowerback 11.5328 2.50686 -1.25032
upperback 7.07866 3.18083 -0.538393
thorax 0.896434 1.5616 -0.190259
lowerneck 0.187372 -6.18149 -4.9859
upperneck 6.85703 -8.4177 4.40896
head 2.60371 -4.20079 2.07565
rclavicle -4.47266e-014 2.18663e-014
rhumerus 58.9702 -15.9929 -15.5165
rradius 56.3143
rwrist -23.0889
rhand 5.01053 9.93819
rfingers 7.12502
rthumb 30.38 -17.5796
lclavicle -4.47266e-014 2.18663e-014
lhumerus 57.9136 14.5375 14.1503
lradius 69.5433
lwrist 23.2652
lhand 7.76137 23.7171
lfingers 7.12502
lthumb 33.0001 50.7173
rfemur -24.2914 -1.98467 15.3788
rtibia 46.3069
rfoot -20.7716 -15.7017
rtoes -17.5559
lfemur -20.5047 5.5743 -21.887
ltibia 41.4092
lfoot -21.4355 8.62531
ltoes -17.523
1669
root -0.146972 17.3164 -1.10061 0.966548 -4.42898 4.28306
lowerback 11.5343 2.48576 -1.18966
upperback 7.05751 3.15695 -0.50617
thorax 0.874782 1.5503 -0.188935
lowerneck 0.087374 -6.19304 -4.98373
upperneck 6.92421 -8.42683 4.33646
head 2.64066 -4.20576 2.04724
rclavicle 1.68967e-014 -4.77083e-015
rhumerus 59.0867 -15.9419 -15.4247
rradius 56.4017
rwrist -23.158
rhand 4.99214 9.89358
rfingers 7.12502
rthumb 30.3625 -17.6274
lclavicle 1.68967e-014 -4.77083e-015
lhumerus 57.7209 14.568 13.9997
lradius 69.3989
lwrist 23.3238
lhand 7.68065 23.719
lfingers 7.12502
lthumb 32.9233 50.7354
rfemur -24.2951 -1.70812 15.3961
rtibia 46.1622
rfoot -20.7283 -15.4404
rtoes -16.9898
lfemur -20.3668 5.76377 -21.8797
ltibia 41.2724
lfoot -21.4752 8.83739
ltoes -17.2962
1670
root -0.128401 17.3269 -1.09567 0.948735 -4.8789 4.28498
lowerback 11.5486 2.47674 -1.18223
upperback 7.05626 3.14394 -0.497205
thorax 0.865653 1.54321 -0.183133
lowerneck -0.132489 -6.22901 -5.00313
upperneck 7.14771 -8.46998 4.30034
head 2.7575 -4.22555 2.02813
rclavicle -4.13472e-014 4.37326e-015
rhumerus 59.1395 -15.9324 -15.3066
rradius 56.4868
rwrist -23.2872
rhand 4.84183 9.98205
rfingers 7.12502
rthumb 30.2191 -17.5653
lclavicle -4.13472e-014 4.37326e-015
lhumerus 57.7811 14.6556 14.2116
lradius 69.2258
lwrist 23.2176
lhand 7.90135 23.7361
lfingers 7.12502
lthumb 33.1332 50.7081
rfemur -24.2719 -1.43785 15.341
rtibia 46.0127
rfoot -20.6862 -15.1898
rtoes -16.5717
lfemur -20.1905 5.91287 -21.9426
ltibia 41.1127
lfoot -21.6211 9.14657
ltoes -17.4091
1671
root -0.107241 17.336 -1.09033 0.932996 -5.38721 4.35316
lowerback 11.4835 2.45354 -1.48976
upperback 6.69565 3.08169 -0.401832
thorax 0.502127 1.50323 0.0867101
lowerneck 1.31215 -6.13337 -4.91021
upperneck 6.78588 -8.37627 4.08004
head 2.35184 -4.19864 1.99117
rclavicle -9.74045e-015 -1.23246e-014
rhumerus 59.222 -15.1517 -15.2495
rradius 56.5445
rwrist -23.3477
rhand 4.69904 10.0215
rfingers 7.12502
rthumb 30.0829 -17.5507
lclavicle -9.74045e-015 -1.23246e-014
lhumerus 57.5464 14.0886 14.5527
lradius 69.1891
lwrist 22.9248
lhand 8.23928 23.9315
lfingers 7.12502
lthumb 33.4545 50.8347
rfemur -24.2691 -1.10579 15.187
rtibia 45.8631
rfoot -20.5714 -15.0242
rtoes -16.7043
lfemur -20.0077 6.1251 -22.0945
ltibia 40.9467
lfoot -21.7518 9.49933
ltoes -17.7862
1672
root -0.0846925 17.3425 -1.08436 0.936409 -5.91171 4.39168
lowerback 11.4276 2.45177 -1.5484
upperback 6.62439 3.07287 -0.417071
thorax 0.455661 1.49738 0.105192
lowerneck 1.76217 -6.15913 -4.58657
upperneck 6.40454 -8.40257 3.7871
head 2.11332 -4.21478 1.8573
rclavicle -1.90833e-014 -1.43125e-014
rhumerus 59.3273 -15.0288 -15.3551
rradius 56.5395
rwrist -23.2335
rhand 4.76013 9.98698
rfingers 7.12502
rthumb 30.1412 -17.5746
lclavicle -1.90833e-014 -1.43125e-014
lhumerus 57.584 14.0202 14.699
lradius 69.2403
lwrist 22.7262
lhand 8.35964 24.0767
lfingers 7.12502
lthumb 33.5689 50.9551
rfemur -24.3015 -0.801601 15.0709
rtibia 45.7241
rfoot -20.413 -14.8927
rtoes -17.1105
lfemur -19.8547 6.36289 -22.2194
ltibia 40.7886
lfoot -21.8192 9.688
ltoes -17.379
1673
root -0.0614677 17.3485 -1.07842 0.941276 -6.40715 4.39676
lowerback 11.433 2.42897 -1.52301
upperback 6.54498 3.0425 -0.455758
thorax 0.373358 1.48367 0.0520396
lowerneck 2.02231 -6.19629 -4.32064
upperneck 6.20279 -8.44275 3.53143
head 1.97517 -4.23597 1.73871
rclavicle 2.08724e-014 -1.98785e-015
rhumerus 59.3203 -14.956 -15.3497
rradius 56.5922
rwrist -23.2401
rhand 4.8221 10.0433
rfingers 7.12502
rthumb 30.2003 -17.5075
lclavicle 2.08724e-014 -1.98785e-015
lhumerus 57.507 13.9954 14.4926
lradius 69.2643
lwrist 22.87
lhand 8.37155 24.1603
lfingers 7.12502
lthumb 33.5802 51.0363
rfemur -24.3145 -0.494464 14.9898
rtibia 45.5778
rfoot -20.4224 -14.58
rtoes -16.2449
lfemur -19.7105 6.56173 -22.3137
ltibia 40.6298
lfoot -21.8646 9.96688
ltoes -17.192
